<?xml version="1.0" encoding="utf-8"?>
<!-- Generator: Adobe Illustrator 28.2.0, SVG Export Plug-In . SVG Version: 6.00 Build 0)  -->
<svg version="1.1" id="Layer_1" xmlns="http://www.w3.org/2000/svg" xmlns:xlink="http://www.w3.org/1999/xlink" x="0px" y="0px"
	 viewBox="0 0 368 271" style="enable-background:new 0 0 368 271;" xml:space="preserve">
<style type="text/css">
	.st0{fill:url(#SVGID_1_);}
	.st1{fill:url(#SVGID_00000058582640881653228530000017707652680093498040_);}
</style>
<g transform="translate(0.000000,271.000000) scale(0.100000,-0.100000)">
	<path d="M1710,2343c0-5,9-21,20-38c11-16,20-42,20-57c0-33,0-33,43-12c34,16,34,18,25,53c-6,20-15,42-20,49
		C1787,2351,1710,2355,1710,2343z"/>
	<path d="M1577,2333c-17-4-16-8,10-35c25-26,28-36,28-98c0-59-3-72-24-94c-23-24-23-26-5-26c28,0,45,15,39,32c-4,11,7,27,35,49
		c40,33,42,36,36,77c-8,60-40,102-74,101C1607,2338,1587,2336,1577,2333z"/>
	<linearGradient id="SVGID_1_" gradientUnits="userSpaceOnUse" x1="1721.8151" y1="86.4804" x2="1721.8151" y2="311.8456">
		<stop  offset="0" style="stop-color:#F8EEB4"/>
		<stop  offset="0.1636" style="stop-color:#DBE4A5"/>
		<stop  offset="0.5197" style="stop-color:#90CA7E"/>
		<stop  offset="0.9623" style="stop-color:#2BA84A"/>
	</linearGradient>
	<path class="st0" d="M1855.3,2324c4-10,10-32.1,14-50.1c5-25.1,17-40.1,54.1-63.1c46.1-29.1,66.1-54.1,54.1-67.1
		c-4-3-28.1,9-55.1,26.1c-31.1,20-62.1,31.1-85.2,31.1c-38.1,0-158.3-56.1-164.3-77.2c-3-7,7-18,21-25.1c22-9,33.1-8,62.1,5
		c38.1,19,94.2,23,94.2,7c0-5-19-19-42.1-31.1c-57.1-28.1-74.2-44.1-117.2-109.2l-36.1-55.1l-3,31.1c-2,18,4,49.1,12,69.1
		c9,21,16,39.1,16,40.1c0,1-17-3-37.1-11c-51.1-18-104.2-17-131.3,2c-30.1,21-28.1,37.1,6,52.1c36.1,15,52.1,49.1,52.1,107.2
		c0,35.1-6,52.1-31.1,80.2l-32.1,36.1l-33.1-32.1c-19-18-36.1-40.1-39.1-49.1c-3-10-40.1-30.1-88.2-48.1
		c-247.5-94.2-473-302.6-537.1-496C779,1604.5,767,1500.3,770,1355l2-128.3l-75.3-25.1c-95.4-32.1-122.6-50.2-143.6-94.4
		c-20.1-44.2-20.1-85.4,1-160.7c16.1-58.3,17.1-59.3,47.2-53.2c77.3,16.1,438,138.6,438,149.7c0,10-41.2,170.8-56.3,222
		c-5,14.1-12.1,17.1-35.2,12.1c-25.1-5-30.1-2-35.2,21.1c-11,41.2,4,253.1,21.1,319.4c34.2,129.6,135.6,254.1,288.3,354.6
		c66.3,43.2,206.9,108.5,214,100.5c4-4,53.2-124.6,72.3-173.8c21.1-56.3,28.1-200.9,14.1-293.3c-7-43.2-29.1-159.7-48.2-259.2
		c-47.2-240.1-47.2-264.2,15.1-467.1c45.2-147.7,72.3-260.2,72.3-298.3c0-32.1-18.1-7-40.2,57.3c-13.1,39.2-27.1,70.3-30.1,70.3
		c-6,0-110.5-234.1-110.5-247.1c0-3,30.1-39.2,68.3-79.4c37.2-40.2,103.5-123.6,147.7-184.8c44.2-60.3,85.4-110.5,90.4-110.5
		c6-1,75.3,66.3,155.7,147.7c80.4,82.4,164.7,164.7,188.9,183.8l43.2,34.2l-39.2,105.5c-22.1,58.3-43.2,120.5-47.2,137.6
		c-3,18.1-10,35.2-14.1,37.2c-4,3-33.1-42.2-65.3-100.5c-32.1-58.3-61.3-103.5-63.3-100.5c-8,7,66.3,183.8,138.6,331.5
		c98.4,197.9,99.4,187.8-45.2,533.4c-80.4,194.9-105.5,341.5-71.3,422.9c8,19.1,30.1,54.2,48.2,77.3
		c39.2,47.2,87.4,138.6,87.4,163.7c0,22.1,34.2,13.1,137.6-37.2c140.6-69.3,266.2-177.8,327.5-283.3
		c54.2-92.4,69.3-160.7,71.3-318.4l1-151.6l-31.1,2.9c-35,2.9-28.2,16.5-70-150.7c-11.7-43.8-20.4-81.7-20.4-84.6
		s77.8-29.2,173.1-59.3c94.3-30.1,191.5-61.2,214.9-69c24.3-7.8,48.6-13.6,54.4-13.6c14.6,0,43.8,93.3,43.8,140
		s-24.3,98.2-57.4,121.5c-13.6,9.7-57.4,29.2-97.2,42.8l-71,24.3l1,141.8c3,281.6-41.1,409.9-198.4,577.2
		c-115.2,121.3-271.6,216.5-455,276.6c-60.1,20-70.1,27.1-88.2,62.1c-11,22-31.1,44.1-45.1,49.1
		C1857.3,2345,1847.3,2343,1855.3,2324z M1796,1536c-21-70-23-91-14-111c19-42,49-30,73,29c20,47,28,43,14-7c-5-20-21-45-35-56
		l-26-20l31-45c17-24,31-50,31-56s-11-27-24-48c-22-35-24-49-29-214l-5-177l52,41c61,48,61,48,76,120c17,86,29,79,15-9
		c-11-69-15-80-46-103c-91-69-86-59-126-260c-20-102-39-188-42-192s-4,53-3,127c5,157,1,169-99,300c-59,79-60,81-53,130
		c15,114,20,140,28,124c10-24,12-78,3-120c-7-33-3-41,44-100c28-35,60-81,71-102c11-22,21-37,23-35c2,1,8,47,15,100
		c10,83,9,101-4,127c-9,16-16,38-16,49c0,10-17,47-39,82c-31,52-37,69-29,86s4,31-18,65c-44,70-75,149-72,183c3,28,5,26,26-31
		c12-34,41-89,63-122c33-49,39-67,34-90c-5-22,1-43,24-83c17-30,32-63,32-74c1-10,5,20,9,69c6,71,12,94,33,124c23,32,25,40,14,58
		c-8,11-31,49-52,83l-39,64l18,50c28,80,56,141,62,136C1818,1625,1809,1584,1796,1536z"/>
	
		<linearGradient id="SVGID_00000129893163890422012790000016180020083131501961_" gradientUnits="userSpaceOnUse" x1="878.0513" y1="726.2156" x2="860.2014" y2="794.1002">
		<stop  offset="0" style="stop-color:#F8EEB4"/>
		<stop  offset="4.669534e-02" style="stop-color:#EEEAAF"/>
		<stop  offset="0.1269" style="stop-color:#D2E1A0"/>
		<stop  offset="0.2311" style="stop-color:#A5D289"/>
		<stop  offset="0.3536" style="stop-color:#68BD69"/>
		<stop  offset="0.4628" style="stop-color:#2BA84A"/>
	</linearGradient>
	<path style="fill:url(#SVGID_00000129893163890422012790000016180020083131501961_);" d="M818,908c-161-53-218-76-218-87
		c0-37,59-196,73-195c13,1,438,135,446,141c10,7-58,208-70,210C1041,978,937,947,818,908z"/>
	<path d="M2370,908c-12-40-25-86-31-102c-5-17-6-33-2-37c9-8,406-136,437-141c16-3,24,13,51,100c18,56,29,104,25,107
		c-11,7-440,145-451,145C2395,980,2381,947,2370,908z"/>
	<path d="M910,649c-118-38-218-73-223-78c-12-12,30-140,56-168c25-28,82-30,151-7c47,16,47,16,71-10c48-52,125-22,125,49
		c0,24,5,35,14,35c8,0,35,9,60,19l45,20l-35,105c-20,58-39,106-42,105C1128,718,1028,687,910,649z"/>
	<path d="M2277,615l-36-105l37-15c20-9,46-18,59-21c18-5,23-13,23-40c0-70,86-102,129-48l20,26l48-16c68-23,125-21,150,7
		c19,20,63,135,63,162c0,7-19,17-42,24c-24,7-117,36-208,65s-175,56-186,60C2314,720,2309,712,2277,615z"/>
</g>
</svg>
